<svg width="52" height="52" viewBox="0 0 52 52" fill="none" xmlns="http://www.w3.org/2000/svg">
<g clip-path="url(#clip0)">
<path d="M45.5151 17.8147C45.5221 16.3117 45.1108 14.8363 44.3272 13.5538C43.5435 12.2712 42.4185 11.232 41.0778 10.5525C39.7372 9.87297 38.2339 9.5799 36.7362 9.70608C35.2385 9.83227 33.8054 10.3727 32.5974 11.267C31.3898 12.1621 30.4552 13.3757 29.8982 14.7719C29.3413 16.1681 29.184 17.6917 29.444 19.1723C29.7039 20.6528 30.3709 22.0317 31.3702 23.1546C32.3696 24.2775 33.6617 25.1001 35.1021 25.5302C34.5706 26.6114 33.748 27.523 32.7268 28.1622C31.7055 28.8014 30.5262 29.143 29.3214 29.1485H22.8431C20.4458 29.1567 18.1374 30.0564 16.3669 31.6727V16.0337C18.333 15.6326 20.0801 14.5157 21.2695 12.8996C22.4589 11.2835 23.0058 9.28333 22.8043 7.28689C22.6027 5.29044 21.667 3.43996 20.1785 2.09424C18.6901 0.748513 16.755 0.00341797 14.7484 0.00341797C12.7418 0.00341797 10.8067 0.748513 9.31824 2.09424C7.82981 3.43996 6.89409 5.29044 6.69252 7.28689C6.49095 9.28333 7.03788 11.2835 8.22728 12.8996C9.41668 14.5157 11.1638 15.6326 13.1299 16.0337V35.7872C11.1674 36.1621 9.40997 37.2421 8.18902 38.8236C6.96807 40.4051 6.36804 42.3787 6.50209 44.3721C6.63614 46.3656 7.49502 48.2411 8.91672 49.6448C10.3384 51.0486 12.2246 51.8836 14.2196 51.9924C16.2146 52.1012 18.1805 51.4761 19.7463 50.2352C21.3122 48.9943 22.3699 47.2233 22.7198 45.2562C23.0698 43.2892 22.6879 41.262 21.6461 39.5572C20.6043 37.8524 18.9746 36.5877 17.0646 36.0017C17.5973 34.9219 18.4204 34.012 19.4415 33.374C20.4626 32.736 21.6412 32.3952 22.8452 32.3898H29.3236C31.344 32.38 33.3111 31.7405 34.9511 30.5603C36.5911 29.3802 37.8223 27.718 38.4734 25.8053C40.4148 25.5506 42.1981 24.6009 43.4928 23.1321C44.7876 21.6632 45.506 19.7748 45.5151 17.8168V17.8147ZM9.89073 8.09934C9.89073 7.46142 10.0164 6.82975 10.2605 6.24039C10.5046 5.65103 10.8624 5.11553 11.3135 4.66445C11.7646 4.21337 12.3001 3.85556 12.8894 3.61144C13.4788 3.36732 14.1105 3.24167 14.7484 3.24167C15.3863 3.24167 16.018 3.36732 16.6073 3.61144C17.1967 3.85556 17.7322 4.21337 18.1833 4.66445C18.6344 5.11553 18.9922 5.65103 19.2363 6.24039C19.4804 6.82975 19.6061 7.46142 19.6061 8.09934C19.6061 9.38767 19.0943 10.6232 18.1833 11.5342C17.2723 12.4452 16.0367 12.957 14.7484 12.957C13.4601 12.957 12.2245 12.4452 11.3135 11.5342C10.4025 10.6232 9.89073 9.38767 9.89073 8.09934ZM19.6061 43.7215C19.6061 44.3594 19.4804 44.9911 19.2363 45.5805C18.9922 46.1698 18.6344 46.7053 18.1833 47.1564C17.7322 47.6075 17.1967 47.9653 16.6073 48.2094C16.018 48.4535 15.3863 48.5792 14.7484 48.5792C14.1105 48.5792 13.4788 48.4535 12.8894 48.2094C12.3001 47.9653 11.7646 47.6075 11.3135 47.1564C10.8624 46.7053 10.5046 46.1698 10.2605 45.5805C10.0164 44.9911 9.89073 44.3594 9.89073 43.7215C9.89073 42.4332 10.4025 41.1976 11.3135 40.2866C12.2245 39.3756 13.4601 38.8638 14.7484 38.8638C16.0367 38.8638 17.2723 39.3756 18.1833 40.2866C19.0943 41.1976 19.6061 42.4332 19.6061 43.7215ZM37.4182 22.6723C36.1296 22.6723 34.8938 22.1604 33.9826 21.2492C33.0714 20.3381 32.5595 19.1022 32.5595 17.8136C32.5595 16.525 33.0714 15.2891 33.9826 14.3779C34.8938 13.4667 36.1296 12.9548 37.4182 12.9548C38.7068 12.9548 39.9427 13.4667 40.8539 14.3779C41.7651 15.2891 42.277 16.525 42.277 17.8136C42.277 19.1022 41.7651 20.3381 40.8539 21.2492C39.9427 22.1604 38.7068 22.6723 37.4182 22.6723Z" fill="#3481A1"/>
</g>
<defs>
<clipPath id="clip0">
<rect width="52" height="52" fill="white"/>
</clipPath>
</defs>
</svg>
