<svg width="52" height="52" viewBox="0 0 52 52" fill="none" xmlns="http://www.w3.org/2000/svg">
<path d="M32.4999 19.5H19.4999C18.3083 19.5 17.3333 20.475 17.3333 21.6667V47.6667C17.3333 48.8583 18.3083 49.8333 19.4999 49.8333H32.4999C33.6916 49.8333 34.6666 48.8583 34.6666 47.6667V21.6667C34.6666 20.475 33.6916 19.5 32.4999 19.5ZM30.3333 45.5H21.6666V23.8333H30.3333V45.5Z" fill="#3481A1"/>
<path d="M25.9999 30.3333C27.1965 30.3333 28.1666 29.3633 28.1666 28.1667C28.1666 26.97 27.1965 26 25.9999 26C24.8033 26 23.8333 26.97 23.8333 28.1667C23.8333 29.3633 24.8033 30.3333 25.9999 30.3333Z" fill="#3481A1"/>
<path d="M15.275 13.1083L18.33 16.1633C20.3686 14.1374 23.1259 13.0003 26 13.0003C28.874 13.0003 31.6314 14.1374 33.67 16.1633L36.725 13.1083C33.9733 10.3567 30.1816 8.66667 26 8.66667C21.8183 8.66667 18.0266 10.3567 15.275 13.1083ZM26 0C19.4133 0 13.455 2.665 9.14331 6.97667L12.1983 10.0317C15.73 6.52167 20.605 4.33333 26 4.33333C31.395 4.33333 36.27 6.52167 39.78 10.0533L42.835 6.99833C38.545 2.665 32.5866 0 26 0Z" fill="#3481A1"/>
</svg>
