<svg width="23" height="23" viewBox="0 0 23 23" fill="none" xmlns="http://www.w3.org/2000/svg">
<path fill-rule="evenodd" clip-rule="evenodd" d="M21.598 0.403902C21.726 0.53161 21.8276 0.683322 21.8969 0.850348C21.9662 1.01737 22.0019 1.19643 22.0019 1.37727C22.0019 1.5581 21.9662 1.73716 21.8969 1.90419C21.8276 2.07121 21.726 2.22293 21.598 2.35063L2.35064 21.598C2.09249 21.8561 1.74236 22.0012 1.37728 22.0012C1.0122 22.0012 0.662066 21.8561 0.403913 21.598C0.145761 21.3398 0.000732425 20.9897 0.000732422 20.6246C0.000732419 20.2595 0.145761 19.9094 0.403913 19.6512L19.6513 0.403902C19.779 0.275871 19.9307 0.174292 20.0977 0.104983C20.2647 0.0356753 20.4438 0 20.6246 0C20.8055 0 20.9845 0.0356753 21.1515 0.104983C21.3186 0.174292 21.4703 0.275871 21.598 0.403902Z" fill="#BDBDBD"/>
<path fill-rule="evenodd" clip-rule="evenodd" d="M0.403902 0.403902C0.275871 0.53161 0.174292 0.683322 0.104983 0.850348C0.0356753 1.01737 0 1.19643 0 1.37727C0 1.5581 0.0356753 1.73716 0.104983 1.90419C0.174292 2.07121 0.275871 2.22293 0.403902 2.35063L19.6512 21.598C19.9094 21.8561 20.2595 22.0012 20.6246 22.0012C20.9897 22.0012 21.3398 21.8561 21.598 21.598C21.8561 21.3398 22.0012 20.9897 22.0012 20.6246C22.0012 20.2595 21.8561 19.9094 21.598 19.6512L2.35063 0.403902C2.22293 0.275871 2.07121 0.174292 1.90419 0.104983C1.73716 0.0356753 1.5581 0 1.37727 0C1.19643 0 1.01737 0.0356753 0.850348 0.104983C0.683322 0.174292 0.53161 0.275871 0.403902 0.403902Z" fill="#BDBDBD"/>
</svg>
