<svg width="60" height="60" viewBox="0 0 60 60" fill="none" xmlns="http://www.w3.org/2000/svg">
<path d="M56.25 35.625H48.75V28.125H45V45H15V15H31.875V11.25H24.375V3.75H20.625V11.25H15C14.0057 11.251 13.0525 11.6464 12.3494 12.3494C11.6464 13.0525 11.251 14.0057 11.25 15V20.625H3.75V24.375H11.25V35.625H3.75V39.375H11.25V45C11.251 45.9943 11.6464 46.9475 12.3494 47.6506C13.0525 48.3536 14.0057 48.749 15 48.75H20.625V56.25H24.375V48.75H35.625V56.25H39.375V48.75H45C45.9941 48.7485 46.9471 48.3529 47.65 47.65C48.3529 46.9471 48.7485 45.9941 48.75 45V39.375H56.25V35.625Z" fill="#3481A1"/>
<path d="M39.375 39.375H20.625V20.625H39.375V39.375ZM24.375 35.625H35.625V24.375H24.375V35.625Z" fill="#3481A1"/>
<path d="M58.125 24.375H54.375C54.369 19.404 52.3917 14.6383 48.8767 11.1233C45.3617 7.60831 40.596 5.63095 35.625 5.625V1.875C41.5904 1.88145 47.3096 4.25405 51.5278 8.47222C55.7459 12.6904 58.1185 18.4096 58.125 24.375Z" fill="#3481A1"/>
<path d="M48.75 24.375H45C44.997 21.8895 44.0083 19.5067 42.2508 17.7492C40.4933 15.9917 38.1105 15.003 35.625 15V11.25C39.1047 11.254 42.4408 12.6381 44.9014 15.0986C47.3619 17.5592 48.746 20.8953 48.75 24.375Z" fill="#3481A1"/>
</svg>
