<svg width="50" height="50" viewBox="0 0 50 50" fill="none" xmlns="http://www.w3.org/2000/svg">
<path d="M47.9167 22.9165H37.5C36.9475 22.9165 36.4176 23.136 36.0269 23.5267C35.6362 23.9174 35.4167 24.4473 35.4167 24.9998V43.7498C35.4167 44.3024 35.6362 44.8323 36.0269 45.223C36.4176 45.6137 36.9475 45.8332 37.5 45.8332H47.9167C48.4692 45.8332 48.9991 45.6137 49.3898 45.223C49.7805 44.8323 50 44.3024 50 43.7498V24.9998C50 24.4473 49.7805 23.9174 49.3898 23.5267C48.9991 23.136 48.4692 22.9165 47.9167 22.9165ZM47.9167 41.6665H37.5V27.0832H47.9167V41.6665ZM41.6667 4.1665H4.16667C1.85417 4.1665 0 6.02067 0 8.33317V33.3332C0 34.4382 0.438987 35.498 1.22039 36.2794C2.00179 37.0609 3.0616 37.4998 4.16667 37.4998H18.75V41.6665H14.5833V45.8332H31.25V41.6665H27.0833V37.4998H31.25V33.3332H4.16667V8.33317H41.6667V18.7498H45.8333V8.33317C45.8333 7.2281 45.3943 6.16829 44.6129 5.38689C43.8315 4.60549 42.7717 4.1665 41.6667 4.1665Z" fill="#3481A1"/>
</svg>
