<svg width="176" height="47" viewBox="0 0 176 47" fill="none" xmlns="http://www.w3.org/2000/svg">
<path d="M11.9531 46L0 14.623H9.11133L15.9668 34.1934L22.793 14.623H31.9336L19.9805 46H11.9531ZM57.6855 42.3379C57.041 42.9238 56.3477 43.4805 55.6055 44.0078C54.8828 44.5156 54.1211 44.9648 53.3203 45.3555C52.5195 45.7266 51.6895 46.0195 50.8301 46.2344C49.9902 46.4688 49.1309 46.5859 48.252 46.5859C46.3184 46.5859 44.502 46.2441 42.8027 45.5605C41.1035 44.877 39.6094 43.9102 38.3203 42.6602C37.0508 41.3906 36.0449 39.8574 35.3027 38.0605C34.5801 36.2441 34.2188 34.2129 34.2188 31.9668V14.623H42.1875V31.9668C42.1875 33.0215 42.3438 33.9688 42.6562 34.8086C42.9883 35.6289 43.4277 36.3223 43.9746 36.8887C44.5215 37.4551 45.1562 37.8848 45.8789 38.1777C46.6211 38.4707 47.4121 38.6172 48.252 38.6172C49.0723 38.6172 49.8438 38.4316 50.5664 38.0605C51.3086 37.6699 51.9531 37.1621 52.5 36.5371C53.0469 35.9121 53.4766 35.209 53.7891 34.4277C54.1016 33.627 54.2578 32.8066 54.2578 31.9668V14.623H62.2559V46H60.3223L57.6855 42.3379ZM80.8594 38.3242C81.1719 38.4219 81.4844 38.4902 81.7969 38.5293C82.1094 38.5488 82.4219 38.5586 82.7344 38.5586C83.5156 38.5586 84.2676 38.4512 84.9902 38.2363C85.7129 38.0215 86.3867 37.7188 87.0117 37.3281C87.6562 36.918 88.2227 36.4297 88.7109 35.8633C89.2188 35.2773 89.6289 34.6328 89.9414 33.9297L95.8008 39.8184C95.0586 40.873 94.1992 41.8203 93.2227 42.6602C92.2656 43.5 91.2207 44.2129 90.0879 44.7988C88.9746 45.3848 87.793 45.8242 86.543 46.1172C85.3125 46.4297 84.043 46.5859 82.7344 46.5859C80.5273 46.5859 78.4473 46.1758 76.4941 45.3555C74.5605 44.5352 72.8613 43.3926 71.3965 41.9277C69.9512 40.4629 68.8086 38.7246 67.9688 36.7129C67.1289 34.6816 66.709 32.4551 66.709 30.0332C66.709 27.5527 67.1289 25.2871 67.9688 23.2363C68.8086 21.1855 69.9512 19.4375 71.3965 17.9922C72.8613 16.5469 74.5605 15.4238 76.4941 14.623C78.4473 13.8223 80.5273 13.4219 82.7344 13.4219C84.043 13.4219 85.3223 13.5781 86.5723 13.8906C87.8223 14.2031 89.0039 14.6523 90.1172 15.2383C91.25 15.8242 92.3047 16.5469 93.2812 17.4062C94.2578 18.2461 95.1172 19.1934 95.8594 20.248L80.8594 38.3242ZM84.9609 21.8301C84.5898 21.6934 84.2188 21.6055 83.8477 21.5664C83.4961 21.5273 83.125 21.5078 82.7344 21.5078C81.6406 21.5078 80.6055 21.7129 79.6289 22.123C78.6719 22.5137 77.832 23.0801 77.1094 23.8223C76.4062 24.5645 75.8496 25.4629 75.4395 26.5176C75.0293 27.5527 74.8242 28.7246 74.8242 30.0332C74.8242 30.3262 74.834 30.6582 74.8535 31.0293C74.8926 31.4004 74.9414 31.7812 75 32.1719C75.0781 32.543 75.166 32.9043 75.2637 33.2559C75.3613 33.6074 75.4883 33.9199 75.6445 34.1934L84.9609 21.8301ZM107.9 46H99.9023V14.623H101.836L104.473 17.6699C105.762 16.498 107.217 15.5996 108.838 14.9746C110.479 14.3301 112.188 14.0078 113.965 14.0078C115.879 14.0078 117.686 14.3789 119.385 15.1211C121.084 15.8438 122.568 16.8496 123.838 18.1387C125.107 19.4082 126.104 20.9023 126.826 22.6211C127.568 24.3203 127.939 26.1367 127.939 28.0703V46H119.941V28.0703C119.941 27.25 119.785 26.4785 119.473 25.7559C119.16 25.0137 118.73 24.3691 118.184 23.8223C117.637 23.2754 117.002 22.8457 116.279 22.5332C115.557 22.2207 114.785 22.0645 113.965 22.0645C113.125 22.0645 112.334 22.2207 111.592 22.5332C110.85 22.8457 110.205 23.2754 109.658 23.8223C109.111 24.3691 108.682 25.0137 108.369 25.7559C108.057 26.4785 107.9 27.25 107.9 28.0703V46ZM143.086 6.09766C143.086 6.83984 142.939 7.5332 142.646 8.17773C142.373 8.82227 141.992 9.38867 141.504 9.87695C141.016 10.3457 140.439 10.7266 139.775 11.0195C139.131 11.293 138.438 11.4297 137.695 11.4297C136.953 11.4297 136.25 11.293 135.586 11.0195C134.941 10.7266 134.375 10.3457 133.887 9.87695C133.418 9.38867 133.037 8.82227 132.744 8.17773C132.471 7.5332 132.334 6.83984 132.334 6.09766C132.334 5.375 132.471 4.69141 132.744 4.04688C133.037 3.38281 133.418 2.81641 133.887 2.34766C134.375 1.85937 134.941 1.47852 135.586 1.20508C136.25 0.912109 136.953 0.765625 137.695 0.765625C138.438 0.765625 139.131 0.912109 139.775 1.20508C140.439 1.47852 141.016 1.85937 141.504 2.34766C141.992 2.81641 142.373 3.38281 142.646 4.04688C142.939 4.69141 143.086 5.375 143.086 6.09766ZM141.709 46H133.652V14.623H141.709V46ZM175.254 20.8633L169.395 26.752C169.102 25.9316 168.701 25.1992 168.193 24.5547C167.686 23.8906 167.109 23.334 166.465 22.8848C165.84 22.4355 165.156 22.0938 164.414 21.8594C163.672 21.625 162.91 21.5078 162.129 21.5078C161.035 21.5078 160 21.7324 159.023 22.1816C158.066 22.6309 157.227 23.2656 156.504 24.0859C155.801 24.8867 155.244 25.8438 154.834 26.957C154.424 28.0703 154.219 29.3008 154.219 30.6484C154.219 31.7422 154.424 32.7676 154.834 33.7246C155.244 34.6816 155.801 35.5215 156.504 36.2441C157.227 36.9668 158.066 37.5332 159.023 37.9434C160 38.3535 161.035 38.5586 162.129 38.5586C162.91 38.5586 163.662 38.4512 164.385 38.2363C165.107 38.0215 165.781 37.7188 166.406 37.3281C167.051 36.918 167.617 36.4297 168.105 35.8633C168.613 35.2773 169.023 34.6328 169.336 33.9297L175.195 39.8184C174.453 40.873 173.594 41.8203 172.617 42.6602C171.66 43.5 170.615 44.2129 169.482 44.7988C168.369 45.3848 167.188 45.8242 165.938 46.1172C164.707 46.4297 163.438 46.5859 162.129 46.5859C159.922 46.5859 157.842 46.1758 155.889 45.3555C153.955 44.5156 152.256 43.373 150.791 41.9277C149.346 40.4824 148.203 38.793 147.363 36.8594C146.523 34.9258 146.104 32.8555 146.104 30.6484C146.104 28.2461 146.523 26 147.363 23.9102C148.203 21.8203 149.346 20.0039 150.791 18.4609C152.256 16.8984 153.955 15.668 155.889 14.7695C157.842 13.8711 159.922 13.4219 162.129 13.4219C163.438 13.4219 164.717 13.5879 165.967 13.9199C167.236 14.252 168.438 14.7402 169.57 15.3848C170.723 16.0098 171.777 16.7812 172.734 17.6992C173.711 18.6172 174.551 19.6719 175.254 20.8633Z" fill="#272727"/>
</svg>
